<?xml version="1.0" encoding="UTF-8" standalone="no"?>
<!DOCTYPE svg PUBLIC "-//W3C//DTD SVG 1.1//EN"
 "http://www.w3.org/Graphics/SVG/1.1/DTD/svg11.dtd">
<!-- Generated by graphviz version 2.43.0 (0)
 -->
<!-- Title: src/projectapp Pages: 1 -->
<svg width="268pt" height="175pt"
 viewBox="0.00 0.00 268.00 175.00" xmlns="http://www.w3.org/2000/svg" xmlns:xlink="http://www.w3.org/1999/xlink">
<g id="graph0" class="graph" transform="scale(1 1) rotate(0) translate(4 171)">
<title>src/projectapp</title>
<polygon fill="white" stroke="transparent" points="-4,4 -4,-171 264,-171 264,4 -4,4"/>
<g id="clust1" class="cluster">
<title>clusterdir_68267d1309a1af8e8297ef4c3efbcdba</title>
<g id="a_clust1"><a xlink:href="dir_68267d1309a1af8e8297ef4c3efbcdba.html" target="_top" xlink:title="src">
<polygon fill="#ddddee" stroke="black" points="8,-8 8,-159 252,-159 252,-8 8,-8"/>
<text text-anchor="middle" x="130" y="-147" font-family="Helvetica,sans-Serif" font-size="10.00">src</text>
</a>
</g>
</g>
<g id="clust2" class="cluster">
<title>clusterdir_134f77fec9e87f7d31f34c58ade30ca2</title>
<g id="a_clust2"><a xlink:href="dir_134f77fec9e87f7d31f34c58ade30ca2.html" target="_top">
<polygon fill="#eeeeff" stroke="black" points="16,-80 16,-132 244,-132 244,-80 16,-80"/>
</a>
</g>
</g>
<!-- dir_00f0a3b1654669903f8939607e046ce9 -->
<g id="node1" class="node">
<title>dir_00f0a3b1654669903f8939607e046ce9</title>
<g id="a_node1"><a xlink:href="dir_00f0a3b1654669903f8939607e046ce9.html" target="_top" xlink:title="project">
<polygon fill="white" stroke="red" points="78,-52 24,-52 24,-16 78,-16 78,-52"/>
<text text-anchor="middle" x="51" y="-31.5" font-family="Helvetica,sans-Serif" font-size="10.00">project</text>
</a>
</g>
</g>
<!-- dir_134f77fec9e87f7d31f34c58ade30ca2 -->
<g id="node2" class="node">
<title>dir_134f77fec9e87f7d31f34c58ade30ca2</title>
<text text-anchor="middle" x="202" y="-103.5" font-family="Helvetica,sans-Serif" font-size="10.00">projectapp</text>
</g>
<!-- dir_dd960212262d29050b59d6cbaf4fb870 -->
<g id="node3" class="node">
<title>dir_dd960212262d29050b59d6cbaf4fb870</title>
<g id="a_node3"><a xlink:href="dir_dd960212262d29050b59d6cbaf4fb870.html" target="_top" xlink:title="header">
<polygon fill="white" stroke="black" points="150,-124 96,-124 96,-88 150,-88 150,-124"/>
<text text-anchor="middle" x="123" y="-103.5" font-family="Helvetica,sans-Serif" font-size="10.00">header</text>
</a>
</g>
</g>
<!-- dir_7adf8672e88752254b0a8d25c2cb3775 -->
<g id="node4" class="node">
<title>dir_7adf8672e88752254b0a8d25c2cb3775</title>
<g id="a_node4"><a xlink:href="dir_7adf8672e88752254b0a8d25c2cb3775.html" target="_top" xlink:title="src">
<polygon fill="white" stroke="black" points="78,-124 24,-124 24,-88 78,-88 78,-124"/>
<text text-anchor="middle" x="51" y="-103.5" font-family="Helvetica,sans-Serif" font-size="10.00">src</text>
</a>
</g>
</g>
<!-- dir_7adf8672e88752254b0a8d25c2cb3775&#45;&gt;dir_00f0a3b1654669903f8939607e046ce9 -->
<g id="edge1" class="edge">
<title>dir_7adf8672e88752254b0a8d25c2cb3775&#45;&gt;dir_00f0a3b1654669903f8939607e046ce9</title>
<path fill="none" stroke="black" d="M51,-87.7C51,-79.98 51,-70.71 51,-62.11"/>
<polygon fill="black" stroke="black" points="54.5,-62.1 51,-52.1 47.5,-62.1 54.5,-62.1"/>
<g id="a_edge1&#45;headlabel"><a xlink:href="dir_000006_000001.html" target="_top" xlink:title="1">
<text text-anchor="middle" x="57.34" y="-63.2" font-family="Helvetica,sans-Serif" font-size="10.00">1</text>
</a>
</g>
</g>
</g>
</svg>
