<?xml version="1.0" encoding="UTF-8" standalone="no"?>
<!DOCTYPE svg PUBLIC "-//W3C//DTD SVG 1.1//EN"
 "http://www.w3.org/Graphics/SVG/1.1/DTD/svg11.dtd">
<!-- Generated by graphviz version 2.43.0 (0)
 -->
<!-- Title: src/project/src/mergesort.cpp Pages: 1 -->
<svg width="180pt" height="140pt"
 viewBox="0.00 0.00 179.50 140.00" xmlns="http://www.w3.org/2000/svg" xmlns:xlink="http://www.w3.org/1999/xlink">
<g id="graph0" class="graph" transform="scale(1 1) rotate(0) translate(4 136)">
<title>src/project/src/mergesort.cpp</title>
<polygon fill="white" stroke="transparent" points="-4,4 -4,-136 175.5,-136 175.5,4 -4,4"/>
<!-- Node1 -->
<g id="node1" class="node">
<title>Node1</title>
<g id="a_node1"><a xlink:title=" ">
<polygon fill="#bfbfbf" stroke="black" points="13.5,-112.5 13.5,-131.5 171.5,-131.5 171.5,-112.5 13.5,-112.5"/>
<text text-anchor="middle" x="92.5" y="-119.5" font-family="Helvetica,sans-Serif" font-size="10.00">src/project/src/mergesort.cpp</text>
</a>
</g>
</g>
<!-- Node2 -->
<g id="node2" class="node">
<title>Node2</title>
<g id="a_node2"><a xlink:href="project_8h.html" target="_top" xlink:title="Provides functions for math. utilities.">
<polygon fill="white" stroke="black" points="0,-56.5 0,-75.5 105,-75.5 105,-56.5 0,-56.5"/>
<text text-anchor="middle" x="52.5" y="-63.5" font-family="Helvetica,sans-Serif" font-size="10.00">../header/project.h</text>
</a>
</g>
</g>
<!-- Node1&#45;&gt;Node2 -->
<g id="edge1" class="edge">
<title>Node1&#45;&gt;Node2</title>
<path fill="none" stroke="midnightblue" d="M85.89,-112.08C80.24,-104.46 71.96,-93.26 65.05,-83.94"/>
<polygon fill="midnightblue" stroke="midnightblue" points="67.75,-81.7 58.98,-75.75 62.12,-85.87 67.75,-81.7"/>
</g>
<!-- Node3 -->
<g id="node3" class="node">
<title>Node3</title>
<g id="a_node3"><a xlink:title=" ">
<polygon fill="white" stroke="#bfbfbf" points="62.5,-0.5 62.5,-19.5 122.5,-19.5 122.5,-0.5 62.5,-0.5"/>
<text text-anchor="middle" x="92.5" y="-7.5" font-family="Helvetica,sans-Serif" font-size="10.00">iostream</text>
</a>
</g>
</g>
<!-- Node1&#45;&gt;Node3 -->
<g id="edge3" class="edge">
<title>Node1&#45;&gt;Node3</title>
<path fill="none" stroke="midnightblue" d="M98.71,-112.33C106.78,-100.01 119.28,-76.66 114.5,-56 112.27,-46.36 107.68,-36.41 103.26,-28.31"/>
<polygon fill="midnightblue" stroke="midnightblue" points="106.2,-26.4 98.14,-19.52 100.15,-29.92 106.2,-26.4"/>
</g>
<!-- Node2&#45;&gt;Node3 -->
<g id="edge2" class="edge">
<title>Node2&#45;&gt;Node3</title>
<path fill="none" stroke="midnightblue" d="M59.11,-56.08C64.76,-48.46 73.04,-37.26 79.95,-27.94"/>
<polygon fill="midnightblue" stroke="midnightblue" points="82.88,-29.87 86.02,-19.75 77.25,-25.7 82.88,-29.87"/>
</g>
</g>
</svg>
