<?xml version="1.0" encoding="UTF-8" standalone="no"?>
<!DOCTYPE svg PUBLIC "-//W3C//DTD SVG 1.1//EN"
 "http://www.w3.org/Graphics/SVG/1.1/DTD/svg11.dtd">
<!-- Generated by graphviz version 9.0.0 (20230911.1827)
 -->
<!-- Title: src/project/src/insertionsort.cpp Pages: 1 -->
<svg width="194pt" height="84pt"
 viewBox="0.00 0.00 194.00 84.00" xmlns="http://www.w3.org/2000/svg" xmlns:xlink="http://www.w3.org/1999/xlink">
<g id="graph0" class="graph" transform="scale(1 1) rotate(0) translate(4 80)">
<title>src/project/src/insertionsort.cpp</title>
<!-- Node1 -->
<g id="Node000001" class="node">
<title>Node1</title>
<g id="a_Node000001"><a xlink:title=" ">
<polygon fill="#999999" stroke="#666666" points="186,-76 32.75,-76 32.75,-56 186,-56 186,-76"/>
<text text-anchor="middle" x="109.38" y="-62.5" font-family="Helvetica,sans-Serif" font-size="10.00">src/project/src/insertionsort.cpp</text>
</a>
</g>
</g>
<!-- Node2 -->
<g id="Node000002" class="node">
<title>Node2</title>
<g id="a_Node000002"><a xlink:href="insertionsort_8h.html" target="_top" xlink:title="Provides functions for insertionsort.">
<polygon fill="white" stroke="#666666" points="118.75,-20 0,-20 0,0 118.75,0 118.75,-20"/>
<text text-anchor="middle" x="59.38" y="-6.5" font-family="Helvetica,sans-Serif" font-size="10.00">../header/insertionsort.h</text>
</a>
</g>
</g>
<!-- Node1&#45;&gt;Node2 -->
<g id="edge1_Node000001_Node000002" class="edge">
<title>Node1&#45;&gt;Node2</title>
<g id="a_edge1_Node000001_Node000002"><a xlink:title=" ">
<path fill="none" stroke="#63b8ff" d="M100.67,-55.59C93.78,-48.16 83.98,-37.58 75.66,-28.58"/>
<polygon fill="#63b8ff" stroke="#63b8ff" points="78.38,-26.37 69.01,-21.41 73.24,-31.12 78.38,-26.37"/>
</a>
</g>
</g>
<!-- Node3 -->
<g id="Node000003" class="node">
<title>Node3</title>
<g id="a_Node000003"><a xlink:title=" ">
<polygon fill="#e0e0e0" stroke="#999999" points="182,-20 136.75,-20 136.75,0 182,0 182,-20"/>
<text text-anchor="middle" x="159.38" y="-6.5" font-family="Helvetica,sans-Serif" font-size="10.00">stdio.h</text>
</a>
</g>
</g>
<!-- Node1&#45;&gt;Node3 -->
<g id="edge2_Node000001_Node000003" class="edge">
<title>Node1&#45;&gt;Node3</title>
<g id="a_edge2_Node000001_Node000003"><a xlink:title=" ">
<path fill="none" stroke="#63b8ff" d="M118.08,-55.59C124.97,-48.16 134.77,-37.58 143.09,-28.58"/>
<polygon fill="#63b8ff" stroke="#63b8ff" points="145.51,-31.12 149.74,-21.41 140.37,-26.37 145.51,-31.12"/>
</a>
</g>
</g>
</g>
</svg>
