<?xml version="1.0" encoding="UTF-8" standalone="no"?>
<!DOCTYPE svg PUBLIC "-//W3C//DTD SVG 1.1//EN"
 "http://www.w3.org/Graphics/SVG/1.1/DTD/svg11.dtd">
<!-- Generated by graphviz version 9.0.0 (20230911.1827)
 -->
<!-- Title: src/projectapp/src/projectapp.cpp Pages: 1 -->
<svg width="141pt" height="164pt"
 viewBox="0.00 0.00 140.75 164.00" xmlns="http://www.w3.org/2000/svg" xmlns:xlink="http://www.w3.org/1999/xlink">
<g id="graph0" class="graph" transform="scale(1 1) rotate(0) translate(4 160)">
<title>src/projectapp/src/projectapp.cpp</title>
<!-- Node1 -->
<g id="Node000001" class="node">
<title>Node1</title>
<g id="a_Node000001"><a xlink:title="A simple program to demonstrate the usage of the project model class.">
<polygon fill="#999999" stroke="#666666" points="94,-156 0,-156 0,-124 94,-124 94,-156"/>
<text text-anchor="start" x="8" y="-142.5" font-family="Helvetica,sans-Serif" font-size="10.00">src/projectapp/src</text>
<text text-anchor="middle" x="47" y="-130.5" font-family="Helvetica,sans-Serif" font-size="10.00">/projectapp.cpp</text>
</a>
</g>
</g>
<!-- Node2 -->
<g id="Node000002" class="node">
<title>Node2</title>
<g id="a_Node000002"><a xlink:title=" ">
<polygon fill="#e0e0e0" stroke="#999999" points="73.75,-20 20.25,-20 20.25,0 73.75,0 73.75,-20"/>
<text text-anchor="middle" x="47" y="-6.5" font-family="Helvetica,sans-Serif" font-size="10.00">iostream</text>
</a>
</g>
</g>
<!-- Node1&#45;&gt;Node2 -->
<g id="edge1_Node000001_Node000002" class="edge">
<title>Node1&#45;&gt;Node2</title>
<g id="a_edge1_Node000001_Node000002"><a xlink:title=" ">
<path fill="none" stroke="#63b8ff" d="M39.7,-123.78C35.35,-113.85 30.25,-100.46 28,-88 25.48,-74 25.18,-69.94 28,-56 29.76,-47.29 33.27,-38.17 36.79,-30.43"/>
<polygon fill="#63b8ff" stroke="#63b8ff" points="39.83,-32.18 41.1,-21.66 33.55,-29.09 39.83,-32.18"/>
</a>
</g>
</g>
<!-- Node3 -->
<g id="Node000003" class="node">
<title>Node3</title>
<g id="a_Node000003"><a xlink:href="project_8h.html" target="_top" xlink:title="Provides functions for math. utilities.">
<polygon fill="white" stroke="#666666" points="132.75,-88 37.25,-88 37.25,-56 132.75,-56 132.75,-88"/>
<text text-anchor="start" x="45.25" y="-74.5" font-family="Helvetica,sans-Serif" font-size="10.00">../../project/header</text>
<text text-anchor="middle" x="85" y="-62.5" font-family="Helvetica,sans-Serif" font-size="10.00">/project.h</text>
</a>
</g>
</g>
<!-- Node1&#45;&gt;Node3 -->
<g id="edge2_Node000001_Node000003" class="edge">
<title>Node1&#45;&gt;Node3</title>
<g id="a_edge2_Node000001_Node000003"><a xlink:title=" ">
<path fill="none" stroke="#63b8ff" d="M55.81,-123.69C60.18,-116.11 65.56,-106.76 70.51,-98.17"/>
<polygon fill="#63b8ff" stroke="#63b8ff" points="73.52,-99.95 75.48,-89.54 67.46,-96.46 73.52,-99.95"/>
</a>
</g>
</g>
<!-- Node3&#45;&gt;Node2 -->
<g id="edge3_Node000003_Node000002" class="edge">
<title>Node3&#45;&gt;Node2</title>
<g id="a_edge3_Node000003_Node000002"><a xlink:title=" ">
<path fill="none" stroke="#63b8ff" d="M75.21,-55.55C70.27,-47.74 64.22,-38.19 58.99,-29.94"/>
<polygon fill="#63b8ff" stroke="#63b8ff" points="62.08,-28.26 53.77,-21.69 56.16,-32.01 62.08,-28.26"/>
</a>
</g>
</g>
</g>
</svg>
