<?xml version="1.0" encoding="UTF-8" standalone="no"?>
<!DOCTYPE svg PUBLIC "-//W3C//DTD SVG 1.1//EN"
 "http://www.w3.org/Graphics/SVG/1.1/DTD/svg11.dtd">
<!-- Generated by graphviz version 2.43.0 (0)
 -->
<!-- Title: src/projectapp/src/projectapp.cpp Pages: 1 -->
<svg width="153pt" height="162pt"
 viewBox="0.00 0.00 153.00 162.00" xmlns="http://www.w3.org/2000/svg" xmlns:xlink="http://www.w3.org/1999/xlink">
<g id="graph0" class="graph" transform="scale(1 1) rotate(0) translate(4 158)">
<title>src/projectapp/src/projectapp.cpp</title>
<polygon fill="white" stroke="transparent" points="-4,4 -4,-158 149,-158 149,4 -4,4"/>
<!-- Node1 -->
<g id="node1" class="node">
<title>Node1</title>
<g id="a_node1"><a xlink:title="A simple program to demonstrate the usage of the project model class.">
<polygon fill="#bfbfbf" stroke="black" points="0,-123.5 0,-153.5 103,-153.5 103,-123.5 0,-123.5"/>
<text text-anchor="start" x="8" y="-141.5" font-family="Helvetica,sans-Serif" font-size="10.00">src/projectapp/src</text>
<text text-anchor="middle" x="51.5" y="-130.5" font-family="Helvetica,sans-Serif" font-size="10.00">/projectapp.cpp</text>
</a>
</g>
</g>
<!-- Node2 -->
<g id="node2" class="node">
<title>Node2</title>
<g id="a_node2"><a xlink:title=" ">
<polygon fill="white" stroke="#bfbfbf" points="21.5,-0.5 21.5,-19.5 81.5,-19.5 81.5,-0.5 21.5,-0.5"/>
<text text-anchor="middle" x="51.5" y="-7.5" font-family="Helvetica,sans-Serif" font-size="10.00">iostream</text>
</a>
</g>
</g>
<!-- Node1&#45;&gt;Node2 -->
<g id="edge1" class="edge">
<title>Node1&#45;&gt;Node2</title>
<path fill="none" stroke="midnightblue" d="M43.86,-123.39C38.97,-113.52 33.07,-99.85 30.5,-87 27.8,-73.49 27.52,-69.45 30.5,-56 32.62,-46.43 37.01,-36.48 41.22,-28.37"/>
<polygon fill="midnightblue" stroke="midnightblue" points="44.32,-30 46.12,-19.56 38.2,-26.6 44.32,-30"/>
</g>
<!-- Node3 -->
<g id="node3" class="node">
<title>Node3</title>
<g id="a_node3"><a xlink:href="$project_8h.html" xlink:title="Provides functions for math. utilities.">
<polygon fill="white" stroke="black" points="40,-56.5 40,-86.5 145,-86.5 145,-56.5 40,-56.5"/>
<text text-anchor="start" x="48" y="-74.5" font-family="Helvetica,sans-Serif" font-size="10.00">../../project/header</text>
<text text-anchor="middle" x="92.5" y="-63.5" font-family="Helvetica,sans-Serif" font-size="10.00">/project.h</text>
</a>
</g>
</g>
<!-- Node1&#45;&gt;Node3 -->
<g id="edge2" class="edge">
<title>Node1&#45;&gt;Node3</title>
<path fill="none" stroke="midnightblue" d="M60.4,-123.4C65.61,-115.13 72.31,-104.51 78.24,-95.1"/>
<polygon fill="midnightblue" stroke="midnightblue" points="81.25,-96.9 83.62,-86.58 75.33,-93.17 81.25,-96.9"/>
</g>
<!-- Node3&#45;&gt;Node2 -->
<g id="edge3" class="edge">
<title>Node3&#45;&gt;Node2</title>
<path fill="none" stroke="midnightblue" d="M82.78,-56.4C76.95,-47.93 69.48,-37.1 63.31,-28.14"/>
<polygon fill="midnightblue" stroke="midnightblue" points="66.02,-25.91 57.47,-19.66 60.26,-29.88 66.02,-25.91"/>
</g>
</g>
</svg>
