<?xml version="1.0" encoding="UTF-8" standalone="no"?>
<!DOCTYPE svg PUBLIC "-//W3C//DTD SVG 1.1//EN"
 "http://www.w3.org/Graphics/SVG/1.1/DTD/svg11.dtd">
<!-- Generated by graphviz version 2.43.0 (0)
 -->
<!-- Title: src/project/header/project.h Pages: 1 -->
<svg width="636pt" height="106pt"
 viewBox="0.00 0.00 635.50 106.00" xmlns="http://www.w3.org/2000/svg" xmlns:xlink="http://www.w3.org/1999/xlink">
<g id="graph0" class="graph" transform="scale(1 1) rotate(0) translate(4 102)">
<title>src/project/header/project.h</title>
<polygon fill="white" stroke="transparent" points="-4,4 -4,-102 631.5,-102 631.5,4 -4,4"/>
<!-- Node1 -->
<g id="node1" class="node">
<title>Node1</title>
<g id="a_node1"><a xlink:title="Provides functions for math. utilities.">
<polygon fill="#bfbfbf" stroke="black" points="232.5,-67.5 232.5,-97.5 336.5,-97.5 336.5,-67.5 232.5,-67.5"/>
<text text-anchor="start" x="240.5" y="-85.5" font-family="Helvetica,sans-Serif" font-size="10.00">src/project/header</text>
<text text-anchor="middle" x="284.5" y="-74.5" font-family="Helvetica,sans-Serif" font-size="10.00">/project.h</text>
</a>
</g>
</g>
<!-- Node2 -->
<g id="node2" class="node">
<title>Node2</title>
<g id="a_node2"><a xlink:href="$projectapp_8cpp.html" xlink:title="A simple program to demonstrate the usage of the project model class.">
<polygon fill="white" stroke="black" points="0,-0.5 0,-30.5 103,-30.5 103,-0.5 0,-0.5"/>
<text text-anchor="start" x="8" y="-18.5" font-family="Helvetica,sans-Serif" font-size="10.00">src/projectapp/src</text>
<text text-anchor="middle" x="51.5" y="-7.5" font-family="Helvetica,sans-Serif" font-size="10.00">/projectapp.cpp</text>
</a>
</g>
</g>
<!-- Node1&#45;&gt;Node2 -->
<g id="edge1" class="edge">
<title>Node1&#45;&gt;Node2</title>
<path fill="none" stroke="midnightblue" d="M224.33,-64.71C186.42,-54.14 138.01,-40.63 102.08,-30.61"/>
<polygon fill="midnightblue" stroke="midnightblue" points="223.66,-68.16 234.23,-67.48 225.54,-61.42 223.66,-68.16"/>
</g>
<!-- Node3 -->
<g id="node3" class="node">
<title>Node3</title>
<g id="a_node3"><a xlink:href="$mergesort_8cpp.html" xlink:title=" ">
<polygon fill="white" stroke="black" points="121.5,-6 121.5,-25 279.5,-25 279.5,-6 121.5,-6"/>
<text text-anchor="middle" x="200.5" y="-13" font-family="Helvetica,sans-Serif" font-size="10.00">src/project/src/mergesort.cpp</text>
</a>
</g>
</g>
<!-- Node1&#45;&gt;Node3 -->
<g id="edge2" class="edge">
<title>Node1&#45;&gt;Node3</title>
<path fill="none" stroke="midnightblue" d="M258.02,-61.01C242.42,-48.94 223.51,-34.3 211.74,-25.19"/>
<polygon fill="midnightblue" stroke="midnightblue" points="256.22,-64.04 266.27,-67.4 260.51,-58.51 256.22,-64.04"/>
</g>
<!-- Node4 -->
<g id="node4" class="node">
<title>Node4</title>
<g id="a_node4"><a xlink:href="$project_8cpp.html" xlink:title=" ">
<polygon fill="white" stroke="black" points="297.5,-6 297.5,-25 439.5,-25 439.5,-6 297.5,-6"/>
<text text-anchor="middle" x="368.5" y="-13" font-family="Helvetica,sans-Serif" font-size="10.00">src/project/src/project.cpp</text>
</a>
</g>
</g>
<!-- Node1&#45;&gt;Node4 -->
<g id="edge3" class="edge">
<title>Node1&#45;&gt;Node4</title>
<path fill="none" stroke="midnightblue" d="M310.98,-61.01C326.58,-48.94 345.49,-34.3 357.26,-25.19"/>
<polygon fill="midnightblue" stroke="midnightblue" points="308.49,-58.51 302.73,-67.4 312.78,-64.04 308.49,-58.51"/>
</g>
<!-- Node5 -->
<g id="node5" class="node">
<title>Node5</title>
<g id="a_node5"><a xlink:href="$insertionsort_8cpp.html" xlink:title=" ">
<polygon fill="white" stroke="black" points="457.5,-6 457.5,-25 627.5,-25 627.5,-6 457.5,-6"/>
<text text-anchor="middle" x="542.5" y="-13" font-family="Helvetica,sans-Serif" font-size="10.00">src/project/src/insertionsort.cpp</text>
</a>
</g>
</g>
<!-- Node1&#45;&gt;Node5 -->
<g id="edge4" class="edge">
<title>Node1&#45;&gt;Node5</title>
<path fill="none" stroke="midnightblue" d="M346.6,-65.85C397.4,-53.06 467.35,-35.43 508.46,-25.08"/>
<polygon fill="midnightblue" stroke="midnightblue" points="345.55,-62.51 336.71,-68.35 347.26,-69.3 345.55,-62.51"/>
</g>
</g>
</svg>
