<?xml version="1.0" encoding="UTF-8" standalone="no"?>
<!DOCTYPE svg PUBLIC "-//W3C//DTD SVG 1.1//EN"
 "http://www.w3.org/Graphics/SVG/1.1/DTD/svg11.dtd">
<!-- Generated by graphviz version 2.43.0 (0)
 -->
<!-- Title: src/project/header/project.h Pages: 1 -->
<svg width="460pt" height="106pt"
 viewBox="0.00 0.00 459.50 106.00" xmlns="http://www.w3.org/2000/svg" xmlns:xlink="http://www.w3.org/1999/xlink">
<g id="graph0" class="graph" transform="scale(1 1) rotate(0) translate(4 102)">
<title>src/project/header/project.h</title>
<polygon fill="white" stroke="transparent" points="-4,4 -4,-102 455.5,-102 455.5,4 -4,4"/>
<!-- Node1 -->
<g id="node1" class="node">
<title>Node1</title>
<g id="a_node1"><a xlink:title="Provides functions for math. utilities.">
<polygon fill="#bfbfbf" stroke="black" points="140.5,-67.5 140.5,-97.5 244.5,-97.5 244.5,-67.5 140.5,-67.5"/>
<text text-anchor="start" x="148.5" y="-85.5" font-family="Helvetica,sans-Serif" font-size="10.00">src/project/header</text>
<text text-anchor="middle" x="192.5" y="-74.5" font-family="Helvetica,sans-Serif" font-size="10.00">/project.h</text>
</a>
</g>
</g>
<!-- Node2 -->
<g id="node2" class="node">
<title>Node2</title>
<g id="a_node2"><a xlink:href="$projectapp_8cpp.html" xlink:title="A simple program to demonstrate the usage of the project model class.">
<polygon fill="white" stroke="black" points="0,-0.5 0,-30.5 103,-30.5 103,-0.5 0,-0.5"/>
<text text-anchor="start" x="8" y="-18.5" font-family="Helvetica,sans-Serif" font-size="10.00">src/projectapp/src</text>
<text text-anchor="middle" x="51.5" y="-7.5" font-family="Helvetica,sans-Serif" font-size="10.00">/projectapp.cpp</text>
</a>
</g>
</g>
<!-- Node1&#45;&gt;Node2 -->
<g id="edge1" class="edge">
<title>Node1&#45;&gt;Node2</title>
<path fill="none" stroke="midnightblue" d="M152.65,-63.13C130.25,-52.8 102.72,-40.11 82.04,-30.58"/>
<polygon fill="midnightblue" stroke="midnightblue" points="151.36,-66.39 161.91,-67.4 154.29,-60.03 151.36,-66.39"/>
</g>
<!-- Node3 -->
<g id="node3" class="node">
<title>Node3</title>
<g id="a_node3"><a xlink:href="$project_8cpp.html" xlink:title=" ">
<polygon fill="white" stroke="black" points="121.5,-6 121.5,-25 263.5,-25 263.5,-6 121.5,-6"/>
<text text-anchor="middle" x="192.5" y="-13" font-family="Helvetica,sans-Serif" font-size="10.00">src/project/src/project.cpp</text>
</a>
</g>
</g>
<!-- Node1&#45;&gt;Node3 -->
<g id="edge2" class="edge">
<title>Node1&#45;&gt;Node3</title>
<path fill="none" stroke="midnightblue" d="M192.5,-57.25C192.5,-46.02 192.5,-33.38 192.5,-25.19"/>
<polygon fill="midnightblue" stroke="midnightblue" points="189,-57.4 192.5,-67.4 196,-57.4 189,-57.4"/>
</g>
<!-- Node4 -->
<g id="node4" class="node">
<title>Node4</title>
<g id="a_node4"><a xlink:href="$insertionsort_8cpp.html" xlink:title=" ">
<polygon fill="white" stroke="black" points="281.5,-6 281.5,-25 451.5,-25 451.5,-6 281.5,-6"/>
<text text-anchor="middle" x="366.5" y="-13" font-family="Helvetica,sans-Serif" font-size="10.00">src/project/src/insertionsort.cpp</text>
</a>
</g>
</g>
<!-- Node1&#45;&gt;Node4 -->
<g id="edge3" class="edge">
<title>Node1&#45;&gt;Node4</title>
<path fill="none" stroke="midnightblue" d="M239.92,-63.78C273.66,-51.18 317.49,-34.81 343.73,-25.01"/>
<polygon fill="midnightblue" stroke="midnightblue" points="238.4,-60.62 230.26,-67.4 240.85,-67.18 238.4,-60.62"/>
</g>
</g>
</svg>
