<?xml version="1.0" encoding="UTF-8" standalone="no"?>
<!DOCTYPE svg PUBLIC "-//W3C//DTD SVG 1.1//EN"
 "http://www.w3.org/Graphics/SVG/1.1/DTD/svg11.dtd">
<!-- Generated by graphviz version 9.0.0 (20230911.1827)
 -->
<!-- Title: src/project/header/project.h Pages: 1 -->
<svg width="250pt" height="108pt"
 viewBox="0.00 0.00 249.62 108.00" xmlns="http://www.w3.org/2000/svg" xmlns:xlink="http://www.w3.org/1999/xlink">
<g id="graph0" class="graph" transform="scale(1 1) rotate(0) translate(4 104)">
<title>src/project/header/project.h</title>
<!-- Node1 -->
<g id="Node000001" class="node">
<title>Node1</title>
<g id="a_Node000001"><a xlink:title="Provides functions for math. utilities.">
<polygon fill="#999999" stroke="#666666" points="176.62,-100 82.62,-100 82.62,-68 176.62,-68 176.62,-100"/>
<text text-anchor="start" x="90.62" y="-86.5" font-family="Helvetica,sans-Serif" font-size="10.00">src/project/header</text>
<text text-anchor="middle" x="129.62" y="-74.5" font-family="Helvetica,sans-Serif" font-size="10.00">/project.h</text>
</a>
</g>
</g>
<!-- Node2 -->
<g id="Node000002" class="node">
<title>Node2</title>
<g id="a_Node000002"><a xlink:href="$project_8cpp.html" xlink:title=" ">
<polygon fill="white" stroke="#666666" points="129.25,-26 0,-26 0,-6 129.25,-6 129.25,-26"/>
<text text-anchor="middle" x="64.62" y="-12.5" font-family="Helvetica,sans-Serif" font-size="10.00">src/project/src/project.cpp</text>
</a>
</g>
</g>
<!-- Node1&#45;&gt;Node2 -->
<g id="edge5_Node000001_Node000002" class="edge">
<title>Node1&#45;&gt;Node2</title>
<g id="a_edge5_Node000001_Node000002"><a xlink:title=" ">
<path fill="none" stroke="#63b8ff" d="M106.69,-59.71C95.35,-48.2 82.32,-34.97 73.8,-26.32"/>
<polygon fill="#63b8ff" stroke="#63b8ff" points="103.98,-61.95 113.49,-66.61 108.96,-57.03 103.98,-61.95"/>
</a>
</g>
</g>
<!-- Node3 -->
<g id="Node000003" class="node">
<title>Node3</title>
<g id="a_Node000003"><a xlink:href="$projectapp_8cpp.html" xlink:title="A simple program to demonstrate the usage of the project model class.">
<polygon fill="white" stroke="#666666" points="241.62,-32 147.62,-32 147.62,0 241.62,0 241.62,-32"/>
<text text-anchor="start" x="155.62" y="-18.5" font-family="Helvetica,sans-Serif" font-size="10.00">src/projectapp/src</text>
<text text-anchor="middle" x="194.62" y="-6.5" font-family="Helvetica,sans-Serif" font-size="10.00">/projectapp.cpp</text>
</a>
</g>
</g>
<!-- Node1&#45;&gt;Node3 -->
<g id="edge6_Node000001_Node000003" class="edge">
<title>Node1&#45;&gt;Node3</title>
<g id="a_edge6_Node000001_Node000003"><a xlink:title=" ">
<path fill="none" stroke="#63b8ff" d="M152.56,-59.71C161.55,-50.59 171.61,-40.37 179.63,-32.22"/>
<polygon fill="#63b8ff" stroke="#63b8ff" points="150.29,-57.03 145.76,-66.61 155.27,-61.95 150.29,-57.03"/>
</a>
</g>
</g>
</g>
</svg>
