<?xml version="1.0" encoding="UTF-8" standalone="no"?>
<!DOCTYPE svg PUBLIC "-//W3C//DTD SVG 1.1//EN"
 "http://www.w3.org/Graphics/SVG/1.1/DTD/svg11.dtd">
<!-- Generated by graphviz version 9.0.0 (20230911.1827)
 -->
<!-- Title: src/project/header/project.h Pages: 1 -->
<svg width="582pt" height="108pt"
 viewBox="0.00 0.00 581.62 108.00" xmlns="http://www.w3.org/2000/svg" xmlns:xlink="http://www.w3.org/1999/xlink">
<g id="graph0" class="graph" transform="scale(1 1) rotate(0) translate(4 104)">
<title>src/project/header/project.h</title>
<!-- Node1 -->
<g id="Node000001" class="node">
<title>Node1</title>
<g id="a_Node000001"><a xlink:title="Provides functions for math. utilities.">
<polygon fill="#999999" stroke="#666666" points="366.62,-100 272.62,-100 272.62,-68 366.62,-68 366.62,-100"/>
<text text-anchor="start" x="280.62" y="-86.5" font-family="Helvetica,sans-Serif" font-size="10.00">src/project/header</text>
<text text-anchor="middle" x="319.62" y="-74.5" font-family="Helvetica,sans-Serif" font-size="10.00">/project.h</text>
</a>
</g>
</g>
<!-- Node2 -->
<g id="Node000002" class="node">
<title>Node2</title>
<g id="a_Node000002"><a xlink:href="$insertionsort_8cpp.html" xlink:title=" ">
<polygon fill="white" stroke="#666666" points="153.25,-26 0,-26 0,-6 153.25,-6 153.25,-26"/>
<text text-anchor="middle" x="76.62" y="-12.5" font-family="Helvetica,sans-Serif" font-size="10.00">src/project/src/insertionsort.cpp</text>
</a>
</g>
</g>
<!-- Node1&#45;&gt;Node2 -->
<g id="edge9_Node000001_Node000002" class="edge">
<title>Node1&#45;&gt;Node2</title>
<g id="a_edge9_Node000001_Node000002"><a xlink:title=" ">
<path fill="none" stroke="#63b8ff" d="M261.3,-67.16C214.52,-54.45 150.43,-37.05 111.37,-26.44"/>
<polygon fill="#63b8ff" stroke="#63b8ff" points="260.17,-70.48 270.73,-69.72 262,-63.72 260.17,-70.48"/>
</a>
</g>
</g>
<!-- Node3 -->
<g id="Node000003" class="node">
<title>Node3</title>
<g id="a_Node000003"><a xlink:href="$mergesort_8cpp.html" xlink:title=" ">
<polygon fill="white" stroke="#666666" points="314.38,-26 170.88,-26 170.88,-6 314.38,-6 314.38,-26"/>
<text text-anchor="middle" x="242.62" y="-12.5" font-family="Helvetica,sans-Serif" font-size="10.00">src/project/src/mergesort.cpp</text>
</a>
</g>
</g>
<!-- Node1&#45;&gt;Node3 -->
<g id="edge10_Node000001_Node000003" class="edge">
<title>Node1&#45;&gt;Node3</title>
<g id="a_edge10_Node000001_Node000003"><a xlink:title=" ">
<path fill="none" stroke="#63b8ff" d="M293.23,-60.38C279.63,-48.72 263.78,-35.13 253.49,-26.32"/>
<polygon fill="#63b8ff" stroke="#63b8ff" points="290.75,-62.86 300.62,-66.71 295.3,-57.54 290.75,-62.86"/>
</a>
</g>
</g>
<!-- Node4 -->
<g id="Node000004" class="node">
<title>Node4</title>
<g id="a_Node000004"><a xlink:href="$project_8cpp.html" xlink:title=" ">
<polygon fill="white" stroke="#666666" points="461.25,-26 332,-26 332,-6 461.25,-6 461.25,-26"/>
<text text-anchor="middle" x="396.62" y="-12.5" font-family="Helvetica,sans-Serif" font-size="10.00">src/project/src/project.cpp</text>
</a>
</g>
</g>
<!-- Node1&#45;&gt;Node4 -->
<g id="edge11_Node000001_Node000004" class="edge">
<title>Node1&#45;&gt;Node4</title>
<g id="a_edge11_Node000001_Node000004"><a xlink:title=" ">
<path fill="none" stroke="#63b8ff" d="M346.02,-60.38C359.62,-48.72 375.47,-35.13 385.76,-26.32"/>
<polygon fill="#63b8ff" stroke="#63b8ff" points="343.95,-57.54 338.63,-66.71 348.5,-62.86 343.95,-57.54"/>
</a>
</g>
</g>
<!-- Node5 -->
<g id="Node000005" class="node">
<title>Node5</title>
<g id="a_Node000005"><a xlink:href="$projectapp_8cpp.html" xlink:title="A simple program to demonstrate the usage of the project model class.">
<polygon fill="white" stroke="#666666" points="573.62,-32 479.62,-32 479.62,0 573.62,0 573.62,-32"/>
<text text-anchor="start" x="487.62" y="-18.5" font-family="Helvetica,sans-Serif" font-size="10.00">src/projectapp/src</text>
<text text-anchor="middle" x="526.62" y="-6.5" font-family="Helvetica,sans-Serif" font-size="10.00">/projectapp.cpp</text>
</a>
</g>
</g>
<!-- Node1&#45;&gt;Node5 -->
<g id="edge12_Node000001_Node000005" class="edge">
<title>Node1&#45;&gt;Node5</title>
<g id="a_edge12_Node000001_Node000005"><a xlink:title=" ">
<path fill="none" stroke="#63b8ff" d="M377.7,-64.48C409.79,-54.25 449.16,-41.7 479.36,-32.07"/>
<polygon fill="#63b8ff" stroke="#63b8ff" points="377.02,-61.03 368.56,-67.4 379.15,-67.7 377.02,-61.03"/>
</a>
</g>
</g>
</g>
</svg>
